<svg xmlns="http://www.w3.org/2000/svg" viewBox="-1 -1 12 12">
	<circle cx="5" cy="5" r="6" fill="black" />
	<circle cx="5" cy="5" r="5.8" fill="#5bff56" />
	<path d="M -0.8 5 L 10.8 5 A 1 1 0 0 1 -0.8 5 Z" fill="#29de22" />
	<path d="M 0 4 L 1 5 L 2 4 L 2 3.5 L 4 1.5 L 5 1.5 L 4.5 1 L 3.5 1 L 2 2.5 L 1.5 2.5 Z" fill="#0df" stroke="black" stroke-width="0.2" />
	<path d="M 3.5 2 L 5.5 4 L 7 2.5 L 7 1.5 L 8 0.5 L 8.5 1 L 7.5 2 L 8.5 3 L 9.5 2 L 10 2.5 L 9 3.5 L 8 3.5 L 6.5 5 L 9.5 8 L 8.5 9 L 5.5 6 L 4 7.5 L 4 8.5 L 3 9.5 L 2.5 9 L 3.5 8 L 2.5 7 L 1.5 8 L 1 7.5 L 2 6.5 L 3 6.5 L 4.5 5 L 2.5 3 Z" fill="#0df" stroke="black" stroke-width="0.2" />
</svg>